<svg width="58.000000" height="9.000000" viewBox="0 0 58 9" fill="none" xmlns="http://www.w3.org/2000/svg" xmlns:xlink="http://www.w3.org/1999/xlink">
	<desc>
			Created with Pixso.
	</desc>
	<defs/>
	<path id="Vector" d="M1.82 5.2L-0.12 3.31C-0.42 3.02 -0.25 2.52 0.16 2.46L2.84 2.07C3 2.05 3.14 1.94 3.22 1.8L4.41 -0.63C4.6 -1 5.13 -1 5.31 -0.63L6.51 1.8C6.58 1.94 6.72 2.05 6.89 2.07L9.57 2.46C9.98 2.52 10.14 3.02 9.84 3.31L7.9 5.2C7.79 5.32 7.73 5.48 7.76 5.65L8.22 8.32C8.29 8.72 7.86 9.03 7.49 8.84L5.1 7.58C4.95 7.51 4.78 7.51 4.63 7.58L2.23 8.84C1.87 9.03 1.44 8.72 1.51 8.32L1.96 5.65C1.99 5.48 1.94 5.32 1.82 5.2ZM13.82 5.2L11.88 3.31C11.58 3.02 11.75 2.52 12.16 2.46L14.84 2.07C15 2.05 15.14 1.94 15.22 1.8L16.41 -0.63C16.6 -1 17.13 -1 17.31 -0.63L18.51 1.8C18.58 1.94 18.72 2.05 18.89 2.07L21.57 2.46C21.98 2.52 22.14 3.02 21.84 3.31L19.9 5.2C19.79 5.32 19.73 5.48 19.76 5.65L20.22 8.32C20.29 8.72 19.86 9.03 19.49 8.84L17.1 7.58C16.95 7.51 16.78 7.51 16.63 7.58L14.23 8.84C13.87 9.03 13.44 8.72 13.51 8.32L13.96 5.65C13.99 5.48 13.94 5.32 13.82 5.2ZM25.82 5.2L23.88 3.31C23.58 3.02 23.75 2.52 24.16 2.46L26.84 2.07C27 2.05 27.14 1.94 27.22 1.8L28.41 -0.63C28.6 -1 29.13 -1 29.31 -0.63L30.51 1.8C30.58 1.94 30.72 2.05 30.89 2.07L33.57 2.46C33.98 2.52 34.14 3.02 33.84 3.31L31.9 5.2C31.79 5.32 31.73 5.48 31.76 5.65L32.22 8.32C32.29 8.72 31.86 9.03 31.49 8.84L29.1 7.58C28.95 7.51 28.78 7.51 28.63 7.58L26.23 8.84C25.87 9.03 25.44 8.72 25.51 8.32L25.96 5.65C25.99 5.48 25.94 5.32 25.82 5.2ZM37.82 5.2L35.88 3.31C35.58 3.02 35.75 2.52 36.16 2.46L38.84 2.07C39 2.05 39.14 1.94 39.22 1.8L40.41 -0.63C40.6 -1 41.13 -1 41.31 -0.63L42.51 1.8C42.58 1.94 42.72 2.05 42.89 2.07L45.57 2.46C45.98 2.52 46.14 3.02 45.84 3.31L43.9 5.2C43.79 5.32 43.73 5.48 43.76 5.65L44.22 8.32C44.29 8.72 43.86 9.03 43.49 8.84L41.1 7.58C40.95 7.51 40.78 7.51 40.63 7.58L38.23 8.84C37.87 9.03 37.44 8.72 37.51 8.32L37.96 5.65C37.99 5.48 37.94 5.32 37.82 5.2ZM49.82 5.2L47.88 3.31C47.58 3.02 47.75 2.52 48.16 2.46L50.84 2.07C51 2.05 51.14 1.94 51.22 1.8L52.41 -0.63C52.6 -1 53.13 -1 53.31 -0.63L54.51 1.8C54.58 1.94 54.72 2.05 54.89 2.07L57.57 2.46C57.98 2.52 58.14 3.02 57.84 3.31L55.9 5.2C55.79 5.32 55.73 5.48 55.76 5.65L56.22 8.32C56.29 8.72 55.86 9.03 55.49 8.84L53.1 7.58C52.95 7.51 52.78 7.51 52.63 7.58L50.23 8.84C49.87 9.03 49.44 8.72 49.51 8.32L49.96 5.65C49.99 5.48 49.94 5.32 49.82 5.2Z" fill="#FF6C6C" fill-opacity="1.000000" fill-rule="evenodd"/>
</svg>
